# xmcd CD database file
#
# Track frame offsets:
#	188
#	33188
#	55088
#	75713
#	88838
#	109163
#	140213
#	159863
#	183038
#	205838
#
# Disc length: 3242 seconds
#
# Revision: 0
# Processed by: cddbd v1.5.2PL0 Copyright (c) Steve Scherf et al.
# Submitted via: CDex 1.51
#
DISCID=7b0ca80a
DTITLE=Varios artistas - Los 40 grandes exitos del ritmo mas caliente
DYEAR=1993
DGENRE=Salsa
TTITLE0=Pedro Navaja - Ruben Blades
TTITLE1=Quimbara - Celia Cruz
TTITLE2=Oye como va- Tito Puente
TTITLE3=El arco iris - Orquesta Black Power de Colombia
TTITLE4=Me gusta tambien - Jossie Esteban y la Patrulla 15
TTITLE5=Paginas de mujer - Eddie Palmieri
TTITLE6=El todopoderoso - Hector Lavoe y Willie Colon
TTITLE7=Salsaludando - Cheo Feliciano
TTITLE8=Y no hago mas na - El Gran Combo de Puerto Rico
TTITLE9=Por eso yo canto salsa - Fania all Stars
EXTD=YEAR: 1993
EXTT0=
EXTT1=
EXTT2=
EXTT3=
EXTT4=
EXTT5=
EXTT6=
EXTT7=
EXTT8=
EXTT9=
PLAYORDER=
